<svg width="960" height="187" viewBox="0 0 960 187" fill="none" xmlns="http://www.w3.org/2000/svg">
  <g clip-path="url(#clip0_256_6769)">
  <path d="M1118.15 182.834C1074.15 188.495 956.35 193.23 837.097 166.879C688.031 133.94 559.928 94.8258 347.975 112.324C136.022 129.823 57.6065 151.439 -99.9996 131.882" stroke="#BF9D7D" stroke-opacity="0.4"/>
  <path d="M1118.15 182.834C1074.15 188.495 956.35 193.23 837.097 166.879C688.031 133.94 559.928 94.8258 347.975 112.324C136.022 129.823 57.6065 151.439 -99.9996 131.882" stroke="black" stroke-opacity="0.2"/>
  <path d="M1118.15 170.834C1074.15 176.495 956.35 181.23 837.097 154.879C688.031 121.94 559.928 82.8258 347.975 100.324C136.022 117.823 57.6065 139.439 -99.9996 119.882" stroke="#BF9D7D" stroke-opacity="0.4"/>
  <path d="M1118.15 170.834C1074.15 176.495 956.35 181.23 837.097 154.879C688.031 121.94 559.928 82.8258 347.975 100.324C136.022 117.823 57.6065 139.439 -99.9996 119.882" stroke="black" stroke-opacity="0.2"/>
  <path d="M1118.15 158.834C1074.15 164.495 956.35 169.23 837.097 142.879C688.031 109.94 559.928 70.8258 347.975 88.3245C136.022 105.823 57.6065 127.439 -99.9996 107.882" stroke="#BF9D7D" stroke-opacity="0.4"/>
  <path d="M1118.15 158.834C1074.15 164.495 956.35 169.23 837.097 142.879C688.031 109.94 559.928 70.8258 347.975 88.3245C136.022 105.823 57.6065 127.439 -99.9996 107.882" stroke="black" stroke-opacity="0.2"/>
  <path d="M1118.15 146.834C1074.15 152.495 956.35 157.23 837.097 130.879C688.031 97.9405 559.928 58.8258 347.975 76.3245C136.022 93.8232 57.6065 115.439 -99.9996 95.8818" stroke="#BF9D7D" stroke-opacity="0.4"/>
  <path d="M1118.15 146.834C1074.15 152.495 956.35 157.23 837.097 130.879C688.031 97.9405 559.928 58.8258 347.975 76.3245C136.022 93.8232 57.6065 115.439 -99.9996 95.8818" stroke="black" stroke-opacity="0.2"/>
  <path d="M1118.15 134.834C1074.15 140.495 956.35 145.23 837.097 118.879C688.031 85.9405 559.928 46.8258 347.975 64.3245C136.022 81.8232 57.6065 103.439 -99.9996 83.8818" stroke="#BF9D7D" stroke-opacity="0.4"/>
  <path d="M1118.15 134.834C1074.15 140.495 956.35 145.23 837.097 118.879C688.031 85.9405 559.928 46.8258 347.975 64.3245C136.022 81.8232 57.6065 103.439 -99.9996 83.8818" stroke="black" stroke-opacity="0.2"/>
  <path d="M1118.15 122.834C1074.15 128.495 956.35 133.23 837.097 106.879C688.031 73.9405 559.928 34.8258 347.975 52.3245C136.022 69.8232 57.6065 91.4391 -99.9996 71.8818" stroke="#BF9D7D" stroke-opacity="0.4"/>
  <path d="M1118.15 122.834C1074.15 128.495 956.35 133.23 837.097 106.879C688.031 73.9405 559.928 34.8258 347.975 52.3245C136.022 69.8232 57.6065 91.4391 -99.9996 71.8818" stroke="black" stroke-opacity="0.2"/>
  <path d="M1118.15 110.834C1074.15 116.495 956.35 121.23 837.097 94.8791C688.031 61.9405 559.928 22.8258 347.975 40.3245C136.022 57.8232 57.6065 79.4391 -99.9996 59.8818" stroke="#BF9D7D" stroke-opacity="0.4"/>
  <path d="M1118.15 110.834C1074.15 116.495 956.35 121.23 837.097 94.8791C688.031 61.9405 559.928 22.8258 347.975 40.3245C136.022 57.8232 57.6065 79.4391 -99.9996 59.8818" stroke="black" stroke-opacity="0.2"/>
  <path d="M1118.15 98.8338C1074.15 104.495 956.35 109.23 837.097 82.8791C688.031 49.9405 559.928 10.8258 347.975 28.3245C136.022 45.8232 57.6065 67.4391 -99.9996 47.8818" stroke="#BF9D7D" stroke-opacity="0.4"/>
  <path d="M1118.15 98.8338C1074.15 104.495 956.35 109.23 837.097 82.8791C688.031 49.9405 559.928 10.8258 347.975 28.3245C136.022 45.8232 57.6065 67.4391 -99.9996 47.8818" stroke="black" stroke-opacity="0.2"/>
  <path d="M1118.15 86.8338C1074.15 92.4951 956.35 97.2301 837.097 70.8791C688.031 37.9405 559.928 -1.17417 347.975 16.3245C136.022 33.8232 57.6065 55.4391 -99.9996 35.8818" stroke="#BF9D7D" stroke-opacity="0.4"/>
  <path d="M1118.15 86.8338C1074.15 92.4951 956.35 97.2301 837.097 70.8791C688.031 37.9405 559.928 -1.17417 347.975 16.3245C136.022 33.8232 57.6065 55.4391 -99.9996 35.8818" stroke="black" stroke-opacity="0.2"/>
  <path d="M1118.15 74.8338C1074.15 80.4951 956.35 85.2301 837.097 58.8791C688.031 25.9405 559.928 -13.1742 347.975 4.32449C136.022 21.8232 57.6065 43.4391 -99.9996 23.8818" stroke="#BF9D7D" stroke-opacity="0.4"/>
  <path d="M1118.15 74.8338C1074.15 80.4951 956.35 85.2301 837.097 58.8791C688.031 25.9405 559.928 -13.1742 347.975 4.32449C136.022 21.8232 57.6065 43.4391 -99.9996 23.8818" stroke="black" stroke-opacity="0.2"/>
  </g>
  <defs>
  <clipPath id="clip0_256_6769">
  <rect width="1060" height="187" fill="white" transform="translate(-100)"/>
  </clipPath>
  </defs>
</svg>
  