<svg width="195" height="28" viewBox="0 0 195 28" fill="none" xmlns="http://www.w3.org/2000/svg">
  <g id="&#228;&#186;&#171;&#230;&#168;&#130;&#233;&#133;&#146;&#229;&#186;&#151;">
    <path
      d="M22.68 1.9179C22.68 1.9179 25.032 3.8219 26.404 5.1099C26.32 5.4179 25.984 5.5579 25.592 5.5579H0.616L0.392 4.7739H20.608L22.68 1.9179ZM10.164 0.657899C18.676 0.349898 15.288 7.0139 11.704 4.5779C11.564 3.1779 10.808 1.6939 9.996 0.797899L10.164 0.657899ZM19.432 14.5739L21.672 12.5859L25.116 15.8619C24.864 16.1139 24.584 16.1979 23.94 16.2259C20.944 17.0659 15.988 17.7939 12.712 18.1019L12.572 17.9059C14.896 17.0659 18.144 15.6099 19.768 14.5739H19.432ZM16.184 17.0379C16.128 17.4579 15.848 17.6819 15.288 17.7659V22.8899C15.288 25.6059 14.588 27.0059 9.912 27.3699C9.8 26.1099 9.632 25.2419 9.072 24.6259C8.54 24.0659 7.924 23.6459 6.188 23.3379V23.0019C6.188 23.0019 9.828 23.2259 10.472 23.2259C10.836 23.2259 10.976 23.1139 10.976 22.7779V16.6459L16.184 17.0379ZM17.164 7.5179L18.928 5.5579L22.708 8.3579C22.54 8.5819 22.204 8.8339 21.616 8.9739V12.6139C21.588 12.8099 19.46 13.4259 18.172 13.4259H17.444V7.5179H17.164ZM9.072 12.8099C9.072 13.1459 7.224 14.0139 5.572 14.0139H5.012V5.9219L9.296 7.5179H18.984V8.3019H9.072V12.8099ZM19.376 11.4939V12.2779H7.28V11.4939H19.376ZM21.28 14.5739V15.3579H2.744L2.492 14.5739H21.28ZM22.96 16.8699C22.96 16.8699 25.312 18.7179 26.712 19.9499C26.656 20.2579 26.32 20.3979 25.9 20.3979H0.224L0 19.6139H20.888L22.96 16.8699Z"
      fill="#BF9D7D" />
    <path
      d="M22.68 1.9179C22.68 1.9179 25.032 3.8219 26.404 5.1099C26.32 5.4179 25.984 5.5579 25.592 5.5579H0.616L0.392 4.7739H20.608L22.68 1.9179ZM10.164 0.657899C18.676 0.349898 15.288 7.0139 11.704 4.5779C11.564 3.1779 10.808 1.6939 9.996 0.797899L10.164 0.657899ZM19.432 14.5739L21.672 12.5859L25.116 15.8619C24.864 16.1139 24.584 16.1979 23.94 16.2259C20.944 17.0659 15.988 17.7939 12.712 18.1019L12.572 17.9059C14.896 17.0659 18.144 15.6099 19.768 14.5739H19.432ZM16.184 17.0379C16.128 17.4579 15.848 17.6819 15.288 17.7659V22.8899C15.288 25.6059 14.588 27.0059 9.912 27.3699C9.8 26.1099 9.632 25.2419 9.072 24.6259C8.54 24.0659 7.924 23.6459 6.188 23.3379V23.0019C6.188 23.0019 9.828 23.2259 10.472 23.2259C10.836 23.2259 10.976 23.1139 10.976 22.7779V16.6459L16.184 17.0379ZM17.164 7.5179L18.928 5.5579L22.708 8.3579C22.54 8.5819 22.204 8.8339 21.616 8.9739V12.6139C21.588 12.8099 19.46 13.4259 18.172 13.4259H17.444V7.5179H17.164ZM9.072 12.8099C9.072 13.1459 7.224 14.0139 5.572 14.0139H5.012V5.9219L9.296 7.5179H18.984V8.3019H9.072V12.8099ZM19.376 11.4939V12.2779H7.28V11.4939H19.376ZM21.28 14.5739V15.3579H2.744L2.492 14.5739H21.28ZM22.96 16.8699C22.96 16.8699 25.312 18.7179 26.712 19.9499C26.656 20.2579 26.32 20.3979 25.9 20.3979H0.224L0 19.6139H20.888L22.96 16.8699Z"
      fill="black" fill-opacity="0.2" />
    <path
      d="M82.964 6.7059C82.768 7.0139 82.208 7.2379 81.312 6.8179L82.18 6.6779C80.752 8.7219 77.588 11.8859 75.096 13.4259L75.068 13.0899H76.524C76.412 14.7419 75.908 15.6659 75.264 15.9459L73.836 12.6979C73.836 12.6979 74.424 12.5299 74.676 12.3619C76.328 10.9339 78.596 6.7339 79.268 4.4659L82.964 6.7059ZM81.396 2.3659C81.256 2.7019 80.752 2.9819 79.8 2.6459L80.724 2.5059C79.408 4.1299 76.972 6.3419 75.096 7.3219V7.0139H76.608C76.496 8.6939 75.992 9.6179 75.348 9.8979L73.892 6.5939C73.892 6.5939 74.368 6.4819 74.62 6.3139C75.628 5.3619 76.916 2.1979 77.224 0.573898L81.396 2.3659ZM65.38 6.7059C65.184 7.0419 64.624 7.2379 63.728 6.8459L64.596 6.7059C63.112 8.7499 59.808 11.9139 57.232 13.4539L57.204 13.1179H58.632C58.52 14.7699 58.016 15.6939 57.372 15.9739L55.944 12.7259C55.944 12.7259 56.56 12.5579 56.812 12.3899C58.548 10.9619 60.984 6.7619 61.712 4.4659L65.38 6.7059ZM63.532 2.3939C63.392 2.7299 62.888 3.0099 61.908 2.6739L62.832 2.5339C61.544 4.1579 59.136 6.3419 57.316 7.3779L57.288 7.0419H58.772C58.66 8.6939 58.156 9.5899 57.54 9.8979L56.112 6.6499C56.112 6.6499 56.588 6.5099 56.84 6.3419C57.848 5.3899 59.108 2.2539 59.416 0.629899L63.532 2.3939ZM67.9 21.4059C67.676 21.7419 67.312 21.8539 66.584 21.7419C63.616 24.2619 59.108 25.5499 55.804 25.9139L55.692 25.6339C58.296 24.1779 61.348 21.4339 63.42 18.4099L67.9 21.4059ZM72.352 20.0059C84.252 18.4939 83.552 27.3979 79.044 25.7179C77.56 23.9259 74.9 21.6299 72.24 20.2579L72.352 20.0059ZM74.564 12.6139C75.628 12.5859 78.12 12.4459 80.556 12.2499L80.584 12.5859C79.632 13.1739 77.504 14.4059 75.376 15.4979L74.564 12.6139ZM74.368 6.7059C75.432 6.6779 77.868 6.5379 80.192 6.3699L80.22 6.7059C79.38 7.2939 77.392 8.4979 75.376 9.5899L74.368 6.7059ZM79.492 9.7299C85.008 12.7259 81.928 17.0099 79.856 14.7139C79.968 13.0899 79.604 11.1859 79.156 9.8419L79.492 9.7299ZM56.616 12.6979C57.764 12.6699 60.48 12.5019 63.168 12.3059L63.196 12.6419C62.104 13.2579 59.808 14.4899 57.428 15.5819L56.616 12.6979ZM56.616 6.7339C57.68 6.7059 60.116 6.5659 62.44 6.3979L62.468 6.7339C61.628 7.3219 59.64 8.5259 57.624 9.6179L56.616 6.7339ZM72.688 15.5259C72.632 15.8899 72.436 16.1979 71.652 16.3099V26.4179C71.652 26.6979 69.776 27.3699 68.068 27.3699H67.34V15.0779L72.688 15.5259ZM78.792 15.0499C78.792 15.0499 81.144 16.8139 82.572 18.0179C82.488 18.3259 82.18 18.4659 81.76 18.4659H56.336L56.112 17.6819H76.72L78.792 15.0499ZM61.572 9.7859C66.948 12.6979 63.952 17.0099 61.936 14.7699C62.16 13.1459 61.768 11.2139 61.236 9.8979L61.572 9.7859ZM72.044 1.0779C71.96 1.5539 71.624 1.8059 71.008 1.8619C70.392 2.7299 69.272 3.9899 68.6 4.8019H67.844C67.9 3.7099 67.9 1.8339 67.872 0.573898L72.044 1.0779ZM70.028 4.3819L71.456 2.8699L74.368 5.0819C74.228 5.2499 73.948 5.4179 73.528 5.5299V13.9019C73.5 14.0979 71.904 14.7419 70.812 14.7419H70.252V4.3819H70.028ZM68.292 14.2939C68.292 14.6019 66.948 15.2739 65.632 15.2739H65.184V3.0939L68.404 4.3819H72.184V5.1659H68.292V14.2939ZM71.932 12.6139V13.3979H66.528V12.6139H71.932ZM71.932 8.4419V9.2259H66.528V8.4419H71.932Z"
      fill="#BF9D7D" />
    <path
      d="M82.964 6.7059C82.768 7.0139 82.208 7.2379 81.312 6.8179L82.18 6.6779C80.752 8.7219 77.588 11.8859 75.096 13.4259L75.068 13.0899H76.524C76.412 14.7419 75.908 15.6659 75.264 15.9459L73.836 12.6979C73.836 12.6979 74.424 12.5299 74.676 12.3619C76.328 10.9339 78.596 6.7339 79.268 4.4659L82.964 6.7059ZM81.396 2.3659C81.256 2.7019 80.752 2.9819 79.8 2.6459L80.724 2.5059C79.408 4.1299 76.972 6.3419 75.096 7.3219V7.0139H76.608C76.496 8.6939 75.992 9.6179 75.348 9.8979L73.892 6.5939C73.892 6.5939 74.368 6.4819 74.62 6.3139C75.628 5.3619 76.916 2.1979 77.224 0.573898L81.396 2.3659ZM65.38 6.7059C65.184 7.0419 64.624 7.2379 63.728 6.8459L64.596 6.7059C63.112 8.7499 59.808 11.9139 57.232 13.4539L57.204 13.1179H58.632C58.52 14.7699 58.016 15.6939 57.372 15.9739L55.944 12.7259C55.944 12.7259 56.56 12.5579 56.812 12.3899C58.548 10.9619 60.984 6.7619 61.712 4.4659L65.38 6.7059ZM63.532 2.3939C63.392 2.7299 62.888 3.0099 61.908 2.6739L62.832 2.5339C61.544 4.1579 59.136 6.3419 57.316 7.3779L57.288 7.0419H58.772C58.66 8.6939 58.156 9.5899 57.54 9.8979L56.112 6.6499C56.112 6.6499 56.588 6.5099 56.84 6.3419C57.848 5.3899 59.108 2.2539 59.416 0.629899L63.532 2.3939ZM67.9 21.4059C67.676 21.7419 67.312 21.8539 66.584 21.7419C63.616 24.2619 59.108 25.5499 55.804 25.9139L55.692 25.6339C58.296 24.1779 61.348 21.4339 63.42 18.4099L67.9 21.4059ZM72.352 20.0059C84.252 18.4939 83.552 27.3979 79.044 25.7179C77.56 23.9259 74.9 21.6299 72.24 20.2579L72.352 20.0059ZM74.564 12.6139C75.628 12.5859 78.12 12.4459 80.556 12.2499L80.584 12.5859C79.632 13.1739 77.504 14.4059 75.376 15.4979L74.564 12.6139ZM74.368 6.7059C75.432 6.6779 77.868 6.5379 80.192 6.3699L80.22 6.7059C79.38 7.2939 77.392 8.4979 75.376 9.5899L74.368 6.7059ZM79.492 9.7299C85.008 12.7259 81.928 17.0099 79.856 14.7139C79.968 13.0899 79.604 11.1859 79.156 9.8419L79.492 9.7299ZM56.616 12.6979C57.764 12.6699 60.48 12.5019 63.168 12.3059L63.196 12.6419C62.104 13.2579 59.808 14.4899 57.428 15.5819L56.616 12.6979ZM56.616 6.7339C57.68 6.7059 60.116 6.5659 62.44 6.3979L62.468 6.7339C61.628 7.3219 59.64 8.5259 57.624 9.6179L56.616 6.7339ZM72.688 15.5259C72.632 15.8899 72.436 16.1979 71.652 16.3099V26.4179C71.652 26.6979 69.776 27.3699 68.068 27.3699H67.34V15.0779L72.688 15.5259ZM78.792 15.0499C78.792 15.0499 81.144 16.8139 82.572 18.0179C82.488 18.3259 82.18 18.4659 81.76 18.4659H56.336L56.112 17.6819H76.72L78.792 15.0499ZM61.572 9.7859C66.948 12.6979 63.952 17.0099 61.936 14.7699C62.16 13.1459 61.768 11.2139 61.236 9.8979L61.572 9.7859ZM72.044 1.0779C71.96 1.5539 71.624 1.8059 71.008 1.8619C70.392 2.7299 69.272 3.9899 68.6 4.8019H67.844C67.9 3.7099 67.9 1.8339 67.872 0.573898L72.044 1.0779ZM70.028 4.3819L71.456 2.8699L74.368 5.0819C74.228 5.2499 73.948 5.4179 73.528 5.5299V13.9019C73.5 14.0979 71.904 14.7419 70.812 14.7419H70.252V4.3819H70.028ZM68.292 14.2939C68.292 14.6019 66.948 15.2739 65.632 15.2739H65.184V3.0939L68.404 4.3819H72.184V5.1659H68.292V14.2939ZM71.932 12.6139V13.3979H66.528V12.6139H71.932ZM71.932 8.4419V9.2259H66.528V8.4419H71.932Z"
      fill="black" fill-opacity="0.2" />
    <path
      d="M128.268 8.4699H124.768V3.2899H128.268V8.4699ZM132.804 3.2899V8.4699H129.36V3.2899H132.804ZM130.368 18.0179C130.368 18.0179 132.076 19.4179 133.084 20.3979C133 20.7059 132.72 20.8459 132.328 20.8459H124.992L124.768 20.0619H128.884L130.368 18.0179ZM113.904 18.6339C114.352 18.6339 114.464 18.6339 114.772 18.0459C115.388 16.9259 115.388 16.9259 120.4 4.6619L120.82 4.7459C119.868 8.4139 118.244 15.1059 117.936 16.8139C117.712 17.8499 117.544 18.9419 117.544 19.6979C117.628 21.3499 118.916 22.2179 118.86 24.8499C118.804 26.3619 117.712 27.3979 116.144 27.3979C115.444 27.3979 114.604 27.0619 114.324 25.9419C114.912 22.9739 114.8 20.0899 114.128 19.6139C113.736 19.3339 113.232 19.1939 112.644 19.1379V18.6339C112.644 18.6339 113.596 18.6339 113.904 18.6339ZM112.14 7.5739C120.428 8.0779 117.432 14.4059 114.072 12.1379C113.764 10.5419 112.812 8.8339 111.944 7.7139L112.14 7.5739ZM114.436 1.1059C122.808 1.8899 119.7 8.1899 116.34 5.8659C116.032 4.2139 115.08 2.4499 114.212 1.2459L114.436 1.1059ZM120.764 6.5659L124.628 7.9939H133.252L135.072 5.9219L138.292 8.4979C138.096 8.7779 137.76 9.0019 137.116 9.1139V26.1939C137.116 26.3899 135.912 27.1739 134.036 27.1739H133.42V8.7779H124.292V26.4179C124.292 26.6699 123.2 27.3419 121.408 27.3419H120.764V6.5659ZM128.268 11.3539C128.268 13.4819 127.876 16.4779 124.236 18.2419L123.984 17.9339C125.412 15.9739 125.412 13.4539 125.412 11.3539V8.4139H128.268V11.3539ZM132.188 8.4139C132.188 8.7219 132.188 9.0579 132.188 9.2819V13.9299C132.188 14.2379 132.244 14.3499 132.552 14.3499H133.112C133.28 14.3499 133.504 14.3219 133.644 14.3219C133.784 14.3219 134.064 14.3219 134.176 14.2939C134.344 14.2939 134.596 14.2379 134.792 14.1819H135.044L135.156 14.2379C135.856 14.5179 136.08 14.8259 136.08 15.3579C136.08 16.4219 135.212 16.8419 132.72 16.8419H131.572C129.612 16.8419 129.388 16.2539 129.388 14.5739V8.4139H132.188ZM135.436 23.8699V24.6539H122.92V23.8699H135.436ZM135.38 0.545898C135.38 0.545898 137.452 2.1419 138.712 3.2619C138.628 3.5699 138.32 3.7099 137.928 3.7099H120.092L119.868 2.9259H133.56L135.38 0.545898Z"
      fill="#BF9D7D" />
    <path
      d="M128.268 8.4699H124.768V3.2899H128.268V8.4699ZM132.804 3.2899V8.4699H129.36V3.2899H132.804ZM130.368 18.0179C130.368 18.0179 132.076 19.4179 133.084 20.3979C133 20.7059 132.72 20.8459 132.328 20.8459H124.992L124.768 20.0619H128.884L130.368 18.0179ZM113.904 18.6339C114.352 18.6339 114.464 18.6339 114.772 18.0459C115.388 16.9259 115.388 16.9259 120.4 4.6619L120.82 4.7459C119.868 8.4139 118.244 15.1059 117.936 16.8139C117.712 17.8499 117.544 18.9419 117.544 19.6979C117.628 21.3499 118.916 22.2179 118.86 24.8499C118.804 26.3619 117.712 27.3979 116.144 27.3979C115.444 27.3979 114.604 27.0619 114.324 25.9419C114.912 22.9739 114.8 20.0899 114.128 19.6139C113.736 19.3339 113.232 19.1939 112.644 19.1379V18.6339C112.644 18.6339 113.596 18.6339 113.904 18.6339ZM112.14 7.5739C120.428 8.0779 117.432 14.4059 114.072 12.1379C113.764 10.5419 112.812 8.8339 111.944 7.7139L112.14 7.5739ZM114.436 1.1059C122.808 1.8899 119.7 8.1899 116.34 5.8659C116.032 4.2139 115.08 2.4499 114.212 1.2459L114.436 1.1059ZM120.764 6.5659L124.628 7.9939H133.252L135.072 5.9219L138.292 8.4979C138.096 8.7779 137.76 9.0019 137.116 9.1139V26.1939C137.116 26.3899 135.912 27.1739 134.036 27.1739H133.42V8.7779H124.292V26.4179C124.292 26.6699 123.2 27.3419 121.408 27.3419H120.764V6.5659ZM128.268 11.3539C128.268 13.4819 127.876 16.4779 124.236 18.2419L123.984 17.9339C125.412 15.9739 125.412 13.4539 125.412 11.3539V8.4139H128.268V11.3539ZM132.188 8.4139C132.188 8.7219 132.188 9.0579 132.188 9.2819V13.9299C132.188 14.2379 132.244 14.3499 132.552 14.3499H133.112C133.28 14.3499 133.504 14.3219 133.644 14.3219C133.784 14.3219 134.064 14.3219 134.176 14.2939C134.344 14.2939 134.596 14.2379 134.792 14.1819H135.044L135.156 14.2379C135.856 14.5179 136.08 14.8259 136.08 15.3579C136.08 16.4219 135.212 16.8419 132.72 16.8419H131.572C129.612 16.8419 129.388 16.2539 129.388 14.5739V8.4139H132.188ZM135.436 23.8699V24.6539H122.92V23.8699H135.436ZM135.38 0.545898C135.38 0.545898 137.452 2.1419 138.712 3.2619C138.628 3.5699 138.32 3.7099 137.928 3.7099H120.092L119.868 2.9259H133.56L135.38 0.545898Z"
      fill="black" fill-opacity="0.2" />
    <path
      d="M179.256 0.741898C188.496 0.881899 185.248 8.0779 181.44 5.5859C181.132 3.8499 180.096 2.0579 179.088 0.881899L179.256 0.741898ZM170.464 4.1579L175.112 5.7259H174.524V12.8379C174.524 17.5139 174.188 23.6179 168.168 27.4539L167.944 27.2859C170.352 23.0579 170.464 17.6539 170.464 12.8379V4.1579ZM191.24 3.0659C191.24 3.0659 193.424 4.8579 194.684 6.0619C194.6 6.3699 194.292 6.5099 193.9 6.5099H172.368V5.7259H189.308L191.24 3.0659ZM190.064 8.6939C190.064 8.6939 192.388 10.5979 193.732 11.8579C193.648 12.1659 193.34 12.3059 192.92 12.3059H183.372V11.5219H188.02L190.064 8.6939ZM186.368 7.2379C186.312 7.6299 186.144 7.9099 185.36 8.0499V17.5979H181.3V6.8459L186.368 7.2379ZM189.14 23.7019V24.4859H176.904V23.7019H189.14ZM175.448 15.4699L179.508 16.9819H187.32L189.14 14.9379L192.5 17.4859C192.332 17.7379 192.052 17.9059 191.408 18.0459V26.3619C191.408 26.5299 190.204 27.1739 188.16 27.1739H187.46V17.7659H179.228V26.5579C179.228 26.7819 178.08 27.3979 176.148 27.3979H175.448V15.4699Z"
      fill="#BF9D7D" />
    <path
      d="M179.256 0.741898C188.496 0.881899 185.248 8.0779 181.44 5.5859C181.132 3.8499 180.096 2.0579 179.088 0.881899L179.256 0.741898ZM170.464 4.1579L175.112 5.7259H174.524V12.8379C174.524 17.5139 174.188 23.6179 168.168 27.4539L167.944 27.2859C170.352 23.0579 170.464 17.6539 170.464 12.8379V4.1579ZM191.24 3.0659C191.24 3.0659 193.424 4.8579 194.684 6.0619C194.6 6.3699 194.292 6.5099 193.9 6.5099H172.368V5.7259H189.308L191.24 3.0659ZM190.064 8.6939C190.064 8.6939 192.388 10.5979 193.732 11.8579C193.648 12.1659 193.34 12.3059 192.92 12.3059H183.372V11.5219H188.02L190.064 8.6939ZM186.368 7.2379C186.312 7.6299 186.144 7.9099 185.36 8.0499V17.5979H181.3V6.8459L186.368 7.2379ZM189.14 23.7019V24.4859H176.904V23.7019H189.14ZM175.448 15.4699L179.508 16.9819H187.32L189.14 14.9379L192.5 17.4859C192.332 17.7379 192.052 17.9059 191.408 18.0459V26.3619C191.408 26.5299 190.204 27.1739 188.16 27.1739H187.46V17.7659H179.228V26.5579C179.228 26.7819 178.08 27.3979 176.148 27.3979H175.448V15.4699Z"
      fill="black" fill-opacity="0.2" />
  </g>
</svg>
    