<svg xmlns="http://www.w3.org/2000/svg" width="196" height="21" viewBox="0 0 196 21" fill="none">
  <path d="M0.311276 15.1494C0.103759 15.1494 0 15.0479 0 14.8448C0 14.7492 0.0345862 14.6238 0.103759 14.4684C0.18446 14.3012 0.253632 14.1518 0.311276 14.0204C0.657138 13.2677 1.11252 12.3776 1.67743 11.3502C2.25387 10.3227 2.93983 9.16378 3.73531 7.87346C3.42403 7.87346 3.2684 7.77788 3.2684 7.58672C3.2684 7.38361 3.37792 7.28206 3.59697 7.28206L4.11576 7.29998C4.47315 6.73845 4.77866 6.26653 5.03229 5.88421C5.28592 5.50189 5.48768 5.20321 5.63755 4.98815C5.89118 4.64168 6.16211 4.2952 6.45033 3.94873C6.75007 3.5903 7.07864 3.24383 7.43603 2.9093C7.97788 2.78982 8.53126 2.70619 9.09617 2.6584C9.67261 2.59867 10.2548 2.5688 10.8428 2.5688C11.8804 2.5688 12.6067 2.62256 13.0217 2.73009C13.1716 2.76593 13.2696 2.80775 13.3157 2.85554C13.3733 2.90333 13.4022 2.96904 13.4022 3.05267C13.4022 3.25577 13.3157 3.35733 13.1428 3.35733C13.0044 3.35733 12.7393 3.32746 12.3473 3.26772C11.9553 3.19604 11.3558 3.1602 10.5488 3.1602C10.1568 3.1602 9.72449 3.18409 9.25181 3.23188C8.77913 3.27967 8.26034 3.35135 7.69543 3.44693C7.21122 3.82925 6.23705 5.1136 4.7729 7.29998H9.00971C9.19417 7.29998 9.2864 7.39556 9.2864 7.58672C9.2864 7.77788 9.19417 7.87346 9.00971 7.87346H4.40974C2.73807 10.5258 1.51026 12.7122 0.72631 14.4326C3.83907 13.7158 6.19093 13.3573 7.7819 13.3573C8.88865 13.3573 9.44203 13.6321 9.44203 14.1817C9.44203 14.3729 9.3498 14.4684 9.16534 14.4684C9.01547 14.4684 8.93477 14.4087 8.92324 14.2892C8.91171 14.1578 8.80795 14.0742 8.61197 14.0383C8.4275 13.9905 8.13352 13.9666 7.73002 13.9666C7.22275 13.9666 6.65208 14.0085 6.018 14.0921C5.39545 14.1638 4.72678 14.2594 4.012 14.3788C2.99747 14.5342 2.17317 14.7014 1.53909 14.8806C0.905006 15.0598 0.495736 15.1494 0.311276 15.1494Z" fill="white"/>
  <path d="M12.7342 14.9344C12.5497 14.9344 12.4575 14.8567 12.4575 14.7014C12.4575 14.6417 12.4806 14.57 12.5267 14.4864C12.5728 14.3908 12.6132 14.3131 12.6477 14.2534L14.2041 11.0097C14.8728 9.59986 15.2071 8.8173 15.2071 8.66199C15.2071 8.49472 15.2878 8.41109 15.4492 8.41109C15.6683 8.41109 15.7778 8.53057 15.7778 8.76952C15.7778 8.85315 15.7259 9.03236 15.6222 9.30715C15.5184 9.58194 15.3858 9.89257 15.2244 10.239C14.9477 10.8603 14.7171 11.3382 14.5327 11.6727C14.8786 11.2546 15.2302 10.8603 15.5876 10.4899C15.945 10.1196 16.3081 9.76712 16.677 9.4326C17.7723 8.44096 18.6139 7.94514 19.2018 7.94514C19.6053 7.94514 19.8071 8.14227 19.8071 8.53654C19.8071 8.89496 19.5131 9.70141 18.9251 10.9559C18.3372 12.2223 18.0432 13.0228 18.0432 13.3573C18.0432 13.5126 18.0951 13.5903 18.1988 13.5903C18.2334 13.5903 18.2853 13.5784 18.3545 13.5545C18.4352 13.5186 18.5159 13.5007 18.5966 13.5007C18.7926 13.5007 18.8906 13.5963 18.8906 13.7874C18.8906 14.0264 18.6427 14.1459 18.1469 14.1459C17.9164 14.1459 17.7492 14.0921 17.6454 13.9846C17.5417 13.8651 17.4898 13.7098 17.4898 13.5186C17.4898 12.9451 17.7723 12.073 18.3372 10.9021C18.9021 9.74323 19.1845 9.0443 19.1845 8.80536C19.1845 8.66199 19.1327 8.5903 19.0289 8.5903C18.7753 8.5903 18.366 8.81133 17.8011 9.25338C17.1901 9.73128 16.579 10.2809 15.968 10.9021C15.357 11.5234 14.7748 12.2343 14.2214 13.0347L13.0109 14.7731C12.9417 14.8806 12.8495 14.9344 12.7342 14.9344Z" fill="white"/>
  <path d="M24.8473 7.42543C24.6514 7.42543 24.5534 7.32387 24.5534 7.12077C24.5534 7.06103 24.5937 6.9535 24.6744 6.79819C24.7551 6.63092 24.8473 6.46366 24.9511 6.2964C25.0549 6.12913 25.1356 6.01563 25.1932 5.95589C25.3892 5.72889 25.5391 5.58552 25.6428 5.52579C25.7581 5.46605 25.8619 5.43618 25.9541 5.43618C26.1962 5.43618 26.3173 5.54968 26.3173 5.77668C26.3173 5.86031 26.2654 5.96187 26.1616 6.08134C26.0694 6.18887 25.9599 6.29042 25.8331 6.386C25.6486 6.50548 25.5333 6.60106 25.4872 6.67274L25.1067 7.2283C25.0952 7.27608 25.0664 7.32387 25.0203 7.37167C24.9857 7.40751 24.928 7.42543 24.8473 7.42543ZM18.7429 20.4541C18.4316 20.4541 18.178 20.3406 17.982 20.1136C17.7745 19.8985 17.6246 19.6297 17.5324 19.3071C17.4286 18.9965 17.3767 18.6978 17.3767 18.4111C17.3767 18.0646 17.4113 17.748 17.4805 17.4613C17.5727 17.0431 17.7226 16.834 17.9301 16.834C18.1146 16.834 18.2068 16.9236 18.2068 17.1028C18.2068 17.1506 18.1837 17.2163 18.1376 17.3C18.0915 17.3836 18.0569 17.4553 18.0339 17.515C17.9647 17.7062 17.9301 17.9511 17.9301 18.2498C17.9301 18.6202 17.9993 18.9726 18.1376 19.3071C18.276 19.6536 18.495 19.8269 18.7948 19.8269C19.0253 19.8269 19.2559 19.7313 19.4865 19.5401C19.7171 19.349 19.9419 19.104 20.1609 18.8054C20.3684 18.5186 20.5644 18.214 20.7489 17.8914C20.9218 17.5688 21.0659 17.2701 21.1812 16.9953C21.3426 16.625 21.504 16.2247 21.6654 15.7946C21.8268 15.3645 21.9709 14.9523 22.0977 14.558C22.2361 14.1638 22.3283 13.8472 22.3744 13.6082C22.4667 13.1303 22.5589 12.6584 22.6511 12.1925C22.7549 11.7146 22.8586 11.2367 22.9624 10.7588C23.1584 9.91049 23.3544 9.3191 23.5504 8.98457C23.7464 8.65004 23.925 8.48278 24.0865 8.48278C24.1672 8.48278 24.2594 8.51862 24.3631 8.5903C24.4784 8.66199 24.5361 8.74562 24.5361 8.8412C24.5361 8.88899 24.4208 9.11599 24.1902 9.5222C24.0634 9.7492 23.9654 9.92842 23.8962 10.0598C23.8271 10.1913 23.7809 10.2809 23.7579 10.3287C23.7233 10.4123 23.6714 10.5915 23.6022 10.8663C23.5331 11.1411 23.4524 11.4696 23.3601 11.852C23.2794 12.2223 23.193 12.6046 23.1007 12.9989C23.0085 13.3932 22.9221 13.7576 22.8413 14.0921C22.7722 14.4147 22.7088 14.6656 22.6511 14.8448C22.4667 15.4661 22.2476 16.0754 21.994 16.6727C21.7404 17.2701 21.4694 17.8137 21.1812 18.3036C20.3396 19.7373 19.5268 20.4541 18.7429 20.4541Z" fill="white"/>
  <path d="M28.1626 14.3968C27.2288 14.3968 26.7619 13.8531 26.7619 12.7659C26.7619 12.2641 26.8772 11.7385 27.1077 11.1889C27.3383 10.6393 27.6438 10.1315 28.0243 9.66557C28.4047 9.18767 28.8255 8.79938 29.2867 8.5007C29.7594 8.20201 30.2378 8.05267 30.722 8.05267C31.1486 8.05267 31.4598 8.21993 31.6558 8.55446C31.8518 8.88899 31.9498 9.25936 31.9498 9.66557C31.9498 10.2032 31.8461 10.7528 31.6385 11.3143C31.431 11.8639 31.1486 12.3717 30.7912 12.8376C30.4338 13.3036 30.0303 13.6799 29.5807 13.9666C29.131 14.2534 28.6584 14.3968 28.1626 14.3968ZM28.1453 13.8233C28.2145 13.8233 28.2549 13.8173 28.2664 13.8054C28.716 13.7456 29.131 13.5784 29.5115 13.3036C29.8919 13.0288 30.2205 12.6883 30.4972 12.2821C30.7854 11.8639 31.0045 11.4159 31.1543 10.938C31.3042 10.4601 31.3791 9.98815 31.3791 9.5222C31.3791 9.24741 31.3042 9.03236 31.1543 8.87704C31.0045 8.72172 30.8142 8.64407 30.5837 8.64407C30.2493 8.64407 29.8919 8.78744 29.5115 9.07417C29.1426 9.36091 28.7909 9.72531 28.4566 10.1674C28.1338 10.6094 27.8686 11.0754 27.6611 11.5652C27.4536 12.0431 27.3498 12.4732 27.3498 12.8555C27.3498 13.5007 27.615 13.8233 28.1453 13.8233Z" fill="white"/>
  <path d="M34.0078 20.4183C33.3046 20.4183 32.9529 19.9882 32.9529 19.1279C32.9529 18.3991 33.1028 17.6942 33.4026 17.0132C33.4487 16.8938 33.5236 16.834 33.6274 16.834C33.8349 16.834 33.9387 16.9296 33.9387 17.1208C33.9387 17.1686 33.9214 17.2283 33.8868 17.3C33.8637 17.3836 33.8349 17.4732 33.8003 17.5688C33.7196 17.7958 33.6562 18.0347 33.6101 18.2856C33.564 18.5365 33.5409 18.7994 33.5409 19.0742C33.5409 19.3848 33.5813 19.5939 33.662 19.7014C33.7427 19.8089 33.8464 19.8627 33.9732 19.8627C34.273 19.8627 34.6246 19.7193 35.0281 19.4326C35.4432 19.1459 35.8697 18.6919 36.3078 18.0706C36.6191 17.6285 36.9419 17.1028 37.2762 16.4935C37.6106 15.8842 37.9679 15.1853 38.3484 14.3968C38.8557 13.3573 39.3226 12.3 39.7491 11.2247C39.4609 11.607 39.1612 11.9774 38.8499 12.3358C38.5386 12.6942 38.2043 13.0288 37.8469 13.3394C36.89 14.1877 36.0945 14.6118 35.4604 14.6118C34.6996 14.6118 34.3191 14.1578 34.3191 13.2498C34.3191 12.9272 34.3767 12.5389 34.492 12.0849C34.6189 11.6309 34.7918 11.1112 35.0108 10.5258C35.0454 10.4302 35.0627 10.3525 35.0627 10.2928C35.0627 10.2211 35.08 10.1494 35.1146 10.0778C35.299 9.6596 35.6046 9.19365 36.0311 8.67991C36.1234 8.57238 36.2041 8.51862 36.2732 8.51862C36.4462 8.51862 36.5326 8.65004 36.5326 8.91288C35.4143 10.6214 34.8552 12.067 34.8552 13.2498C34.8552 13.7516 35.0454 14.0025 35.4259 14.0025C35.8524 14.0025 36.4462 13.6978 37.2071 13.0885C37.7489 12.6584 38.2504 12.1745 38.7116 11.6369C39.1727 11.0873 39.5877 10.5198 39.9567 9.93439C40.2103 9.54012 40.412 9.19365 40.5619 8.89496C40.7233 8.58433 40.8213 8.37525 40.8559 8.26772C40.9135 8.08851 40.9942 7.9989 41.098 7.9989C41.317 7.9989 41.4266 8.09448 41.4266 8.28564C41.4266 8.38122 41.3805 8.55446 41.2882 8.80536C41.2075 9.0443 41.1038 9.33104 40.9769 9.66557C40.7925 10.1554 40.5273 10.8125 40.1815 11.6369C39.8356 12.4613 39.4033 13.441 38.8845 14.576C38.2389 15.9858 37.6048 17.1387 36.9822 18.0347C36.5211 18.7157 36.0138 19.2833 35.4604 19.7373C34.9186 20.1913 34.4344 20.4183 34.0078 20.4183Z" fill="white"/>
  <path d="M42.653 15.0957C42.457 15.0957 42.359 15.0001 42.359 14.8089C42.359 14.797 42.4282 14.6477 42.5666 14.3609C42.7049 14.0742 42.9009 13.65 43.1545 13.0885L44.0365 11.1709C44.3939 10.3944 44.6475 9.77907 44.7974 9.32507C44.9588 8.87107 45.0395 8.57836 45.0395 8.44693C45.0395 8.25577 45.1317 8.1602 45.3162 8.1602C45.5006 8.1602 45.5929 8.25577 45.5929 8.44693C45.5929 8.60225 45.541 8.84717 45.4372 9.1817C45.345 9.50428 45.1894 9.92244 44.9703 10.4362L44.0884 12.515C46.4979 9.36091 48.3136 7.78385 49.5357 7.78385C49.7663 7.78385 49.945 7.8854 50.0718 8.08851C50.1986 8.27967 50.262 8.49472 50.262 8.73367C50.262 9.30715 49.8643 10.3048 49.0688 11.7265C49.6798 11.0813 50.2966 10.4362 50.9191 9.79102C51.5532 9.13391 52.1873 8.48875 52.8214 7.85554C52.9828 7.70022 53.1154 7.62256 53.2191 7.62256C53.3575 7.62256 53.4727 7.69424 53.565 7.83761C53.6572 7.96904 53.7033 8.11241 53.7033 8.26772C53.7033 8.3872 53.6514 8.53654 53.5477 8.71575C53.3978 8.97859 53.2595 9.2952 53.1326 9.66557C53.0058 10.024 52.8617 10.4302 52.7003 10.8842C52.5159 11.3979 52.3833 11.846 52.3026 12.2283C52.2219 12.6106 52.1815 12.9212 52.1815 13.1602C52.1815 13.4589 52.2507 13.6799 52.389 13.8233C52.5274 13.9547 52.6657 14.0204 52.8041 14.0204C53.0462 14.0204 53.3113 13.9547 53.5996 13.8233C53.8878 13.6919 54.1241 13.5604 54.3086 13.429C54.6775 13.1781 55.0637 12.8675 55.4672 12.4971C55.8707 12.1148 56.2569 11.7325 56.6259 11.3502C56.672 11.3024 56.7411 11.2785 56.8334 11.2785C57.0063 11.2785 57.0928 11.3502 57.0928 11.4935C57.0928 11.6249 57.0121 11.7743 56.8507 11.9416C56.3895 12.4195 55.9745 12.8316 55.6056 13.1781C55.2366 13.5126 54.885 13.7874 54.5507 14.0025C54.3316 14.1339 54.0665 14.2713 53.7552 14.4147C53.4439 14.558 53.1096 14.6297 52.7522 14.6297C52.4179 14.6297 52.1354 14.5222 51.9048 14.3071C51.6858 14.0921 51.5763 13.6321 51.5763 12.9272C51.5763 12.6524 51.6224 12.3298 51.7146 11.9595C51.8068 11.5772 51.9452 11.153 52.1296 10.6871L53.0462 8.42901L50.5733 11.0097C50.285 11.3083 50.0487 11.5592 49.8643 11.7623C49.6798 11.9655 49.5299 12.1327 49.4146 12.2641C49.1956 12.5031 48.9996 12.7361 48.8267 12.9631C48.6653 13.1901 48.5269 13.3872 48.4116 13.5545C48.3309 13.6859 48.2387 13.7516 48.1349 13.7516C47.9389 13.7516 47.841 13.668 47.841 13.5007C47.841 13.1303 48.1638 12.2761 48.8094 10.938C49.455 9.59986 49.7778 8.79938 49.7778 8.53654C49.7778 8.41707 49.651 8.35733 49.3973 8.35733C48.3713 8.35733 46.544 10.0957 43.9154 13.5724C43.6964 13.895 43.3332 14.3788 42.826 15.024C42.7914 15.0718 42.7337 15.0957 42.653 15.0957Z" fill="white"/>
  <path d="M59.5174 14.8089C59.0332 14.8089 58.6528 14.6357 58.3761 14.2892C58.0994 13.9428 57.9611 13.5186 57.9611 13.0168C57.9611 12.1566 58.2378 11.2725 58.7911 10.3645C58.941 10.1136 59.1139 9.86868 59.3099 9.62973C59.5059 9.37883 59.7192 9.13988 59.9498 8.91288C60.2956 8.56641 60.6588 8.27967 61.0392 8.05267C61.4197 7.82567 61.7886 7.71217 62.146 7.71217C62.734 7.71217 63.028 7.9989 63.028 8.57238C63.028 9.28923 62.6244 9.94036 61.8174 10.5258C61.0681 11.0515 60.3302 11.3143 59.6039 11.3143C59.4771 11.3143 59.3618 11.3083 59.258 11.2964C59.1658 11.2725 59.0794 11.2486 58.9987 11.2247C58.8834 11.4517 58.7796 11.7444 58.6874 12.1028C58.5951 12.4613 58.549 12.7719 58.549 13.0347C58.549 13.8233 58.8834 14.2175 59.552 14.2175C60.0939 14.2175 60.6069 14.122 61.0911 13.9308C61.5753 13.7277 62.1518 13.3514 62.8204 12.8018C63.2355 12.4672 63.5467 12.1984 63.7543 11.9953C63.9618 11.7922 64.1866 11.5772 64.4287 11.3502C64.4979 11.3024 64.5613 11.2785 64.6189 11.2785C64.6766 11.2785 64.7342 11.2964 64.7918 11.3322C64.8495 11.3681 64.8783 11.4218 64.8783 11.4935C64.8783 11.6249 64.763 11.8101 64.5324 12.0491C64.3365 12.2402 64.1289 12.4433 63.9099 12.6584C63.6909 12.8615 63.345 13.1482 62.8723 13.5186C62.365 13.9248 61.8117 14.2414 61.2122 14.4684C60.6127 14.6954 60.0478 14.8089 59.5174 14.8089ZM59.5002 10.7408C59.8691 10.7408 60.2207 10.6811 60.555 10.5616C60.8894 10.4422 61.2064 10.2689 61.5062 10.0419C62.1748 9.52818 62.5092 9.04431 62.5092 8.5903C62.5092 8.3872 62.3881 8.28564 62.146 8.28564C61.6848 8.28564 61.1488 8.57835 60.5377 9.16378C60.238 9.45052 59.9901 9.71336 59.7941 9.95231C59.6097 10.1793 59.4367 10.4302 59.2753 10.705C59.3445 10.7289 59.4195 10.7408 59.5002 10.7408Z" fill="white"/>
  <path d="M64.9918 14.9344C64.8073 14.9344 64.7151 14.8567 64.7151 14.7014C64.7151 14.6417 64.7382 14.57 64.7843 14.4864C64.8304 14.3908 64.8707 14.3131 64.9053 14.2534L66.4617 11.0097C67.1304 9.59986 67.4647 8.8173 67.4647 8.66199C67.4647 8.49472 67.5454 8.41109 67.7068 8.41109C67.9258 8.41109 68.0354 8.53057 68.0354 8.76952C68.0354 8.85315 67.9835 9.03236 67.8797 9.30715C67.776 9.58194 67.6434 9.89257 67.482 10.239C67.2053 10.8603 66.9747 11.3382 66.7903 11.6727C67.1361 11.2546 67.4878 10.8603 67.8452 10.4899C68.2025 10.1196 68.5657 9.76712 68.9346 9.4326C70.0299 8.44096 70.8715 7.94514 71.4594 7.94514C71.8629 7.94514 72.0647 8.14227 72.0647 8.53654C72.0647 8.89496 71.7707 9.70141 71.1827 10.9559C70.5948 12.2223 70.3008 13.0228 70.3008 13.3573C70.3008 13.5126 70.3527 13.5903 70.4564 13.5903C70.491 13.5903 70.5429 13.5784 70.6121 13.5545C70.6927 13.5186 70.7735 13.5007 70.8541 13.5007C71.0501 13.5007 71.1481 13.5963 71.1481 13.7874C71.1481 14.0264 70.9003 14.1459 70.4045 14.1459C70.174 14.1459 70.0068 14.0921 69.903 13.9846C69.7993 13.8651 69.7474 13.7098 69.7474 13.5186C69.7474 12.9451 70.0299 12.073 70.5948 10.9021C71.1597 9.74323 71.4421 9.0443 71.4421 8.80536C71.4421 8.66199 71.3902 8.5903 71.2865 8.5903C71.0329 8.5903 70.6236 8.81133 70.0587 9.25338C69.4477 9.73128 68.8366 10.2809 68.2256 10.9021C67.6146 11.5234 67.0324 12.2343 66.479 13.0347L65.2685 14.7731C65.1993 14.8806 65.1071 14.9344 64.9918 14.9344Z" fill="white"/>
  <path d="M74.217 15.7229C73.9979 15.7229 73.8884 15.5437 73.8884 15.1853C73.8884 14.6596 74.1709 13.7396 74.7358 12.4254C75.3122 11.1112 76.1653 9.39078 77.2952 7.26414C76.8571 7.26414 76.442 7.32387 76.0501 7.44335C75.6696 7.55088 75.4679 7.68827 75.4448 7.85554C75.4333 7.90333 75.4044 7.95111 75.3583 7.9989C75.3237 8.03475 75.2661 8.05267 75.1854 8.05267C75.0009 8.05267 74.9087 7.95709 74.9087 7.76593C74.9087 7.4553 75.1451 7.19843 75.6177 6.99532C76.0904 6.79221 76.7533 6.69066 77.6064 6.69066L78.7997 4.64765C78.8804 4.51623 78.9668 4.37286 79.0591 4.21754C79.1513 4.05028 79.2551 3.87107 79.3703 3.67991C79.4856 3.51264 79.6182 3.42901 79.7681 3.42901C79.8603 3.42901 79.9295 3.45888 79.9756 3.51862C80.0217 3.56641 80.0448 3.62017 80.0448 3.67991C80.0448 3.85912 79.7911 4.33702 79.2839 5.1136C78.6498 6.08134 78.3097 6.60703 78.2636 6.69066C78.4365 6.69066 78.6959 6.70858 79.0418 6.74442C79.3876 6.76832 79.7969 6.81014 80.2696 6.86987C80.4425 6.88182 80.529 6.97143 80.529 7.13869C80.529 7.32985 80.4252 7.42543 80.2177 7.42543C80.137 7.42543 79.9756 7.41348 79.7335 7.38959C79.4914 7.35374 79.232 7.32387 78.9553 7.29998C78.6786 7.27608 78.4423 7.27011 78.2463 7.28206L77.9869 7.29998C75.6466 11.5652 74.4821 14.2175 74.4937 15.257L74.511 15.4003V15.4362C74.511 15.6273 74.413 15.7229 74.217 15.7229Z" fill="white"/>
  <path d="M85.8846 15.257C85.8039 15.257 85.7116 15.2152 85.6079 15.1315C85.5041 15.0479 85.4522 14.9583 85.4522 14.8627C85.4522 14.7552 85.5675 14.4804 85.7981 14.0383C86.0287 13.5963 86.3976 12.9332 86.9049 12.0491C87.4121 11.165 88.075 10.018 88.8936 8.60822L91.159 4.68349C91.2858 4.44454 91.4414 4.16378 91.6259 3.8412C91.8103 3.51862 92.0351 3.1363 92.3003 2.69424C92.3695 2.58672 92.4444 2.53295 92.5251 2.53295C92.6058 2.53295 92.6865 2.57477 92.7672 2.6584C92.8479 2.73009 92.8883 2.80775 92.8883 2.89138C92.8883 2.93917 92.6001 3.47083 92.0236 4.48636C91.4472 5.48994 90.5768 6.98935 89.4124 8.98457C88.9743 9.73726 88.4958 10.5676 87.977 11.4756C87.4698 12.3836 86.9279 13.3693 86.3515 14.4326C89.6948 13.5007 92.2657 13.0347 94.0642 13.0347C94.606 13.0347 95.0557 13.1303 95.4131 13.3215C95.782 13.5007 95.9664 13.6799 95.9664 13.8591C95.9664 14.0622 95.8684 14.1638 95.6725 14.1638C95.5111 14.1638 95.4304 14.0742 95.4304 13.895V13.8412C95.3151 13.7815 95.1191 13.7337 94.8424 13.6978C94.5657 13.662 94.2487 13.6441 93.8913 13.6441C93.4532 13.6441 92.9574 13.6859 92.4041 13.7695C91.8507 13.8412 91.2858 13.9368 90.7093 14.0563C90.1444 14.1638 89.6141 14.2773 89.1184 14.3968C88.6342 14.5043 88.173 14.6178 87.7349 14.7373C87.3084 14.8687 86.9106 14.9822 86.5417 15.0778C86.3227 15.1255 86.1612 15.1674 86.0575 15.2032C85.9653 15.239 85.9076 15.257 85.8846 15.257Z" fill="white"/>
  <path d="M103.802 15.0957C103.237 15.0957 102.955 14.6715 102.955 13.8233C102.955 13.3693 103.059 12.8197 103.266 12.1745C101.871 13.8591 100.776 14.7014 99.9805 14.7014C99.3233 14.7014 98.9948 14.2892 98.9948 13.4649C98.9948 13.1542 99.0409 12.7839 99.1331 12.3537C99.2369 11.9117 99.3694 11.4577 99.5309 10.9917C99.7038 10.5258 99.8882 10.0897 100.084 9.68349C100.28 9.27728 100.476 8.94873 100.672 8.69783C100.741 8.6142 100.828 8.57238 100.932 8.57238C100.989 8.57238 101.047 8.59628 101.105 8.64407C101.162 8.67991 101.191 8.73965 101.191 8.82328C101.191 8.89496 101.151 8.99652 101.07 9.12794C100.551 10.012 100.182 10.7827 99.9632 11.4398C99.6865 12.1925 99.5481 12.8436 99.5481 13.3932C99.5481 13.9069 99.675 14.1638 99.9286 14.1638C100.09 14.1638 100.303 14.0801 100.568 13.9129C100.834 13.7456 101.105 13.5425 101.381 13.3036C101.669 13.0527 101.917 12.8197 102.125 12.6046C102.701 11.9714 103.22 11.2964 103.681 10.5795C103.889 10.245 104.073 9.92244 104.235 9.61181C104.408 9.28923 104.563 8.9547 104.701 8.60822C104.759 8.4768 104.805 8.38122 104.84 8.32149C104.886 8.2498 104.949 8.21396 105.03 8.21396C105.272 8.21396 105.393 8.30954 105.393 8.5007C105.393 8.62017 105.353 8.7038 105.272 8.75159C104.096 11.2247 103.508 12.9272 103.508 13.8591C103.508 14.11 103.531 14.2892 103.577 14.3968C103.624 14.4923 103.704 14.5401 103.82 14.5401C103.981 14.5401 104.229 14.4326 104.563 14.2175C104.909 14.0025 105.313 13.6739 105.774 13.2319L107.589 11.5114C107.682 11.4159 107.768 11.3681 107.849 11.3681C108.033 11.3681 108.126 11.4577 108.126 11.6369C108.126 11.7922 107.762 12.2104 107.036 12.8914C106.725 13.1901 106.448 13.441 106.206 13.6441C105.964 13.8472 105.739 14.0264 105.532 14.1817C105.14 14.4684 104.794 14.6895 104.494 14.8448C104.194 15.012 103.964 15.0957 103.802 15.0957Z" fill="white"/>
  <path d="M107.741 14.9344C107.545 14.9344 107.447 14.8388 107.447 14.6476C107.447 14.5521 107.585 14.349 107.862 14.0383C108.15 13.7158 108.588 13.2976 109.176 12.7839L111.251 10.9559C111.171 10.6333 111.096 10.3466 111.026 10.0957C110.969 9.84478 110.911 9.6357 110.854 9.46844C110.634 8.77549 110.438 8.33941 110.266 8.1602C110.196 8.08851 110.162 8.01085 110.162 7.92722C110.162 7.74801 110.248 7.6584 110.421 7.6584C110.686 7.6584 110.963 8.07656 111.251 8.91288C111.343 9.18767 111.43 9.46246 111.511 9.73726C111.591 10.012 111.672 10.2868 111.753 10.5616C113.009 9.48636 113.828 8.74562 114.208 8.33941C114.301 8.24383 114.364 8.17214 114.399 8.12435C114.433 8.07656 114.456 8.03475 114.468 7.9989C114.525 7.86748 114.623 7.80177 114.762 7.80177C114.946 7.80177 115.038 7.89138 115.038 8.07059C115.038 8.42901 114.001 9.45052 111.926 11.1351C112.064 11.6369 112.208 12.1088 112.358 12.5509C112.508 12.9929 112.681 13.3573 112.877 13.6441C113.084 13.9189 113.315 14.0563 113.569 14.0563C113.811 14.0563 114.064 13.9905 114.329 13.8591C114.606 13.7277 114.883 13.5664 115.159 13.3752C115.436 13.1721 115.684 12.981 115.903 12.8018C116.318 12.4672 116.629 12.1984 116.837 11.9953C117.044 11.7922 117.269 11.5772 117.511 11.3502C117.581 11.3024 117.644 11.2785 117.702 11.2785C117.759 11.2785 117.817 11.2964 117.875 11.3322C117.932 11.3681 117.961 11.4218 117.961 11.4935C117.961 11.6249 117.846 11.8101 117.615 12.0491C117.419 12.2402 117.212 12.4433 116.993 12.6584C116.774 12.8615 116.428 13.1482 115.955 13.5186C115.747 13.6859 115.5 13.8531 115.211 14.0204C114.935 14.1877 114.652 14.3251 114.364 14.4326C114.087 14.5401 113.834 14.5939 113.603 14.5939C113.211 14.5939 112.877 14.4505 112.6 14.1638C112.335 13.8651 112.11 13.4828 111.926 13.0168C111.741 12.5509 111.574 12.061 111.424 11.5473L109.643 13.1244C109.286 13.435 108.969 13.7337 108.692 14.0204C108.415 14.3071 108.173 14.576 107.966 14.8269C107.919 14.8985 107.845 14.9344 107.741 14.9344Z" fill="white"/>
  <path d="M123.473 15.0957C122.908 15.0957 122.626 14.6715 122.626 13.8233C122.626 13.3693 122.73 12.8197 122.937 12.1745C121.542 13.8591 120.447 14.7014 119.651 14.7014C118.994 14.7014 118.666 14.2892 118.666 13.4649C118.666 13.1542 118.712 12.7839 118.804 12.3537C118.908 11.9117 119.04 11.4577 119.202 10.9917C119.375 10.5258 119.559 10.0897 119.755 9.68349C119.951 9.27728 120.147 8.94873 120.343 8.69783C120.412 8.6142 120.499 8.57238 120.602 8.57238C120.66 8.57238 120.718 8.59628 120.775 8.64407C120.833 8.67991 120.862 8.73965 120.862 8.82328C120.862 8.89496 120.822 8.99652 120.741 9.12794C120.222 10.012 119.853 10.7827 119.634 11.4398C119.357 12.1925 119.219 12.8436 119.219 13.3932C119.219 13.9069 119.346 14.1638 119.599 14.1638C119.761 14.1638 119.974 14.0801 120.239 13.9129C120.505 13.7456 120.775 13.5425 121.052 13.3036C121.34 13.0527 121.588 12.8197 121.796 12.6046C122.372 11.9714 122.891 11.2964 123.352 10.5795C123.56 10.245 123.744 9.92244 123.905 9.61181C124.078 9.28923 124.234 8.9547 124.372 8.60822C124.43 8.4768 124.476 8.38122 124.511 8.32149C124.557 8.2498 124.62 8.21396 124.701 8.21396C124.943 8.21396 125.064 8.30954 125.064 8.5007C125.064 8.62017 125.024 8.7038 124.943 8.75159C123.767 11.2247 123.179 12.9272 123.179 13.8591C123.179 14.11 123.202 14.2892 123.248 14.3968C123.294 14.4923 123.375 14.5401 123.49 14.5401C123.652 14.5401 123.9 14.4326 124.234 14.2175C124.58 14.0025 124.983 13.6739 125.445 13.2319L127.26 11.5114C127.353 11.4159 127.439 11.3681 127.52 11.3681C127.704 11.3681 127.796 11.4577 127.796 11.6369C127.796 11.7922 127.433 12.2104 126.707 12.8914C126.396 13.1901 126.119 13.441 125.877 13.6441C125.635 13.8472 125.41 14.0264 125.202 14.1817C124.81 14.4684 124.465 14.6895 124.165 14.8448C123.865 15.012 123.635 15.0957 123.473 15.0957Z" fill="white"/>
  <path d="M127.879 14.9344C127.694 14.9344 127.602 14.8567 127.602 14.7014C127.602 14.6297 127.619 14.558 127.654 14.4864C127.7 14.4147 127.734 14.3549 127.757 14.3071L129.331 11.0097C130 9.59986 130.334 8.8173 130.334 8.66199C130.334 8.49472 130.415 8.41109 130.576 8.41109C130.795 8.41109 130.905 8.52459 130.905 8.75159C130.905 8.87107 130.853 9.06223 130.749 9.32507C130.645 9.58791 130.513 9.89257 130.351 10.239C130.075 10.8603 129.844 11.3382 129.66 11.6727C130.006 11.2546 130.357 10.8603 130.715 10.4899C131.072 10.1196 131.435 9.76712 131.804 9.4326C132.899 8.44096 133.741 7.94514 134.329 7.94514C134.732 7.94514 134.934 8.14227 134.934 8.53654C134.934 8.91886 134.813 9.11002 134.571 9.11002C134.456 9.11002 134.369 9.00846 134.312 8.80536C134.277 8.66199 134.196 8.5903 134.069 8.5903C133.873 8.5903 133.493 8.81133 132.928 9.25338C132.306 9.73128 131.677 10.2988 131.043 10.9559C130.421 11.613 129.758 12.4493 129.054 13.4649L128.19 14.7193C128.144 14.7791 128.098 14.8269 128.051 14.8627C128.017 14.9105 127.959 14.9344 127.879 14.9344Z" fill="white"/>
  <path d="M135.527 20.4183C134.824 20.4183 134.472 19.9882 134.472 19.1279C134.472 18.3991 134.622 17.6942 134.922 17.0132C134.968 16.8938 135.043 16.834 135.147 16.834C135.354 16.834 135.458 16.9296 135.458 17.1208C135.458 17.1686 135.441 17.2283 135.406 17.3C135.383 17.3836 135.354 17.4732 135.32 17.5688C135.239 17.7958 135.175 18.0347 135.129 18.2856C135.083 18.5365 135.06 18.7994 135.06 19.0742C135.06 19.3848 135.101 19.5939 135.181 19.7014C135.262 19.8089 135.366 19.8627 135.493 19.8627C135.792 19.8627 136.144 19.7193 136.547 19.4326C136.962 19.1459 137.389 18.6919 137.827 18.0706C138.138 17.6285 138.461 17.1028 138.796 16.4935C139.13 15.8842 139.487 15.1853 139.868 14.3968C140.375 13.3573 140.842 12.3 141.268 11.2247C140.98 11.607 140.68 11.9774 140.369 12.3358C140.058 12.6942 139.724 13.0288 139.366 13.3394C138.409 14.1877 137.614 14.6118 136.98 14.6118C136.219 14.6118 135.838 14.1578 135.838 13.2498C135.838 12.9272 135.896 12.5389 136.011 12.0849C136.138 11.6309 136.311 11.1112 136.53 10.5258C136.565 10.4302 136.582 10.3525 136.582 10.2928C136.582 10.2211 136.599 10.1494 136.634 10.0778C136.818 9.6596 137.124 9.19365 137.55 8.67991C137.643 8.57238 137.723 8.51862 137.793 8.51862C137.965 8.51862 138.052 8.65004 138.052 8.91288C136.934 10.6214 136.374 12.067 136.374 13.2498C136.374 13.7516 136.565 14.0025 136.945 14.0025C137.372 14.0025 137.965 13.6978 138.726 13.0885C139.268 12.6584 139.77 12.1745 140.231 11.6369C140.692 11.0873 141.107 10.5198 141.476 9.93439C141.73 9.54012 141.931 9.19365 142.081 8.89496C142.243 8.58433 142.341 8.37525 142.375 8.26772C142.433 8.08851 142.514 7.9989 142.617 7.9989C142.836 7.9989 142.946 8.09448 142.946 8.28564C142.946 8.38122 142.9 8.55446 142.808 8.80536C142.727 9.0443 142.623 9.33104 142.496 9.66557C142.312 10.1554 142.047 10.8125 141.701 11.6369C141.355 12.4613 140.923 13.441 140.404 14.576C139.758 15.9858 139.124 17.1387 138.502 18.0347C138.04 18.7157 137.533 19.2833 136.98 19.7373C136.438 20.1913 135.954 20.4183 135.527 20.4183Z" fill="white"/>
  <path d="M151.335 16.2426C151.116 16.2426 151.006 16.1411 151.006 15.938C151.006 14.5282 151.802 12.3298 153.393 9.34299C153.508 9.12794 153.687 8.81133 153.929 8.39317C153.537 8.44096 153.208 8.53057 152.943 8.66199C152.689 8.78146 152.522 8.8412 152.442 8.8412C152.234 8.8412 152.13 8.73965 152.13 8.53654C152.13 8.22591 152.845 7.95709 154.275 7.73009C154.471 7.38361 154.718 6.9535 155.018 6.43976C155.329 5.92603 155.698 5.32268 156.125 4.62973C156.436 4.11599 156.701 3.66796 156.92 3.28564C157.139 2.89138 157.318 2.53295 157.457 2.21037C157.503 2.0909 157.578 2.03116 157.681 2.03116C157.9 2.03116 158.01 2.15064 158.01 2.38959C158.01 2.47322 157.872 2.75398 157.595 3.23188C157.33 3.69783 156.909 4.41468 156.332 5.38242L154.966 7.6584C155.404 7.61061 155.866 7.57477 156.35 7.55088C156.834 7.52698 157.33 7.51503 157.837 7.51503C158.852 7.51503 160.713 7.60464 163.423 7.78385C163.653 7.27011 163.895 6.76832 164.149 6.27847C164.414 5.77668 164.691 5.28086 164.979 4.79102C165.394 4.06223 165.757 3.49472 166.068 3.08851C166.38 2.67035 166.61 2.40153 166.76 2.28206C166.91 2.16258 167.031 2.10285 167.123 2.10285C167.296 2.10285 167.383 2.19843 167.383 2.38959C167.383 2.48517 167.331 2.5688 167.227 2.64048C167.02 2.7958 166.766 3.07656 166.466 3.48278C166.166 3.88899 165.832 4.42065 165.463 5.07776C164.91 6.0455 164.437 6.96545 164.045 7.83761C164.449 7.83761 164.65 7.93917 164.65 8.14227C164.65 8.22591 164.622 8.29759 164.564 8.35733C164.506 8.41706 164.42 8.44096 164.305 8.42901L163.786 8.39317C162.621 11.0813 162.039 12.9212 162.039 13.9129V14.3071C162.039 14.4505 161.941 14.5222 161.745 14.5222C161.561 14.5222 161.469 14.3131 161.469 13.895C161.469 12.8436 162.033 10.9917 163.163 8.33941C161.757 8.25577 160.598 8.19604 159.687 8.1602C158.788 8.12435 158.137 8.10643 157.733 8.10643C156.603 8.10643 155.572 8.1602 154.638 8.26772L153.894 9.61181C153.329 10.6512 152.885 11.5831 152.563 12.4075C152.24 13.2199 152.021 13.8293 151.905 14.2355C151.79 14.7014 151.715 15.0598 151.681 15.3107C151.646 15.5616 151.617 15.7946 151.594 16.0097C151.583 16.165 151.496 16.2426 151.335 16.2426Z" fill="white"/>
  <path d="M169.125 14.3968C168.191 14.3968 167.724 13.8531 167.724 12.7659C167.724 12.2641 167.84 11.7385 168.07 11.1889C168.301 10.6393 168.606 10.1315 168.987 9.66557C169.367 9.18767 169.788 8.79938 170.249 8.5007C170.722 8.20201 171.2 8.05267 171.684 8.05267C172.111 8.05267 172.422 8.21993 172.618 8.55446C172.814 8.88899 172.912 9.25936 172.912 9.66557C172.912 10.2032 172.808 10.7528 172.601 11.3143C172.393 11.8639 172.111 12.3717 171.754 12.8376C171.396 13.3036 170.993 13.6799 170.543 13.9666C170.093 14.2534 169.621 14.3968 169.125 14.3968ZM169.108 13.8233C169.177 13.8233 169.217 13.8173 169.229 13.8054C169.678 13.7456 170.093 13.5784 170.474 13.3036C170.854 13.0288 171.183 12.6883 171.46 12.2821C171.748 11.8639 171.967 11.4159 172.117 10.938C172.267 10.4601 172.342 9.98815 172.342 9.5222C172.342 9.24741 172.267 9.03236 172.117 8.87704C171.967 8.72172 171.777 8.64407 171.546 8.64407C171.212 8.64407 170.854 8.78744 170.474 9.07417C170.105 9.36091 169.753 9.72531 169.419 10.1674C169.096 10.6094 168.831 11.0754 168.624 11.5652C168.416 12.0431 168.312 12.4732 168.312 12.8555C168.312 13.5007 168.577 13.8233 169.108 13.8233Z" fill="white"/>
  <path d="M175.23 15.7229C175.011 15.7229 174.901 15.5437 174.901 15.1853C174.901 14.6596 175.184 13.7396 175.748 12.4254C176.325 11.1112 177.178 9.39078 178.308 7.26414C177.87 7.26414 177.455 7.32387 177.063 7.44335C176.682 7.55088 176.48 7.68827 176.457 7.85554C176.446 7.90333 176.417 7.95111 176.371 7.9989C176.336 8.03475 176.279 8.05267 176.198 8.05267C176.014 8.05267 175.921 7.95709 175.921 7.76593C175.921 7.4553 176.158 7.19843 176.63 6.99532C177.103 6.79221 177.766 6.69066 178.619 6.69066L179.812 4.64765C179.893 4.51623 179.979 4.37286 180.072 4.21754C180.164 4.05028 180.268 3.87107 180.383 3.67991C180.498 3.51264 180.631 3.42901 180.781 3.42901C180.873 3.42901 180.942 3.45888 180.988 3.51862C181.034 3.56641 181.057 3.62017 181.057 3.67991C181.057 3.85912 180.804 4.33702 180.297 5.1136C179.662 6.08134 179.322 6.60703 179.276 6.69066C179.449 6.69066 179.709 6.70858 180.054 6.74442C180.4 6.76832 180.81 6.81014 181.282 6.86987C181.455 6.88182 181.542 6.97143 181.542 7.13869C181.542 7.32985 181.438 7.42543 181.23 7.42543C181.15 7.42543 180.988 7.41348 180.746 7.38959C180.504 7.35374 180.245 7.32387 179.968 7.29998C179.691 7.27608 179.455 7.27011 179.259 7.28206L179 7.29998C176.659 11.5652 175.495 14.2175 175.506 15.257L175.524 15.4003V15.4362C175.524 15.6273 175.426 15.7229 175.23 15.7229Z" fill="white"/>
  <path d="M182.623 14.8089C182.139 14.8089 181.758 14.6357 181.481 14.2892C181.205 13.9428 181.066 13.5186 181.066 13.0168C181.066 12.1566 181.343 11.2725 181.896 10.3645C182.046 10.1136 182.219 9.86868 182.415 9.62973C182.611 9.37883 182.824 9.13988 183.055 8.91288C183.401 8.56641 183.764 8.27967 184.145 8.05267C184.525 7.82567 184.894 7.71217 185.251 7.71217C185.839 7.71217 186.133 7.9989 186.133 8.57238C186.133 9.28923 185.73 9.94036 184.923 10.5258C184.173 11.0515 183.436 11.3143 182.709 11.3143C182.582 11.3143 182.467 11.3083 182.363 11.2964C182.271 11.2725 182.185 11.2486 182.104 11.2247C181.989 11.4517 181.885 11.7444 181.793 12.1028C181.7 12.4613 181.654 12.7719 181.654 13.0347C181.654 13.8233 181.989 14.2175 182.657 14.2175C183.199 14.2175 183.712 14.122 184.196 13.9308C184.681 13.7277 185.257 13.3514 185.926 12.8018C186.341 12.4672 186.652 12.1984 186.86 11.9953C187.067 11.7922 187.292 11.5772 187.534 11.3502C187.603 11.3024 187.667 11.2785 187.724 11.2785C187.782 11.2785 187.839 11.2964 187.897 11.3322C187.955 11.3681 187.984 11.4218 187.984 11.4935C187.984 11.6249 187.868 11.8101 187.638 12.0491C187.442 12.2402 187.234 12.4433 187.015 12.6584C186.796 12.8615 186.45 13.1482 185.978 13.5186C185.47 13.9248 184.917 14.2414 184.317 14.4684C183.718 14.6954 183.153 14.8089 182.623 14.8089ZM182.605 10.7408C182.974 10.7408 183.326 10.6811 183.66 10.5616C183.995 10.4422 184.312 10.2689 184.611 10.0419C185.28 9.52818 185.614 9.04431 185.614 8.5903C185.614 8.3872 185.493 8.28564 185.251 8.28564C184.79 8.28564 184.254 8.57835 183.643 9.16378C183.343 9.45052 183.095 9.71336 182.899 9.95231C182.715 10.1793 182.542 10.4302 182.381 10.705C182.45 10.7289 182.525 10.7408 182.605 10.7408Z" fill="white"/>
  <path d="M190.587 14.9702C190.057 14.9702 189.648 14.803 189.359 14.4684C189.083 14.122 188.944 13.668 188.944 13.1064C188.944 12.7002 189.014 12.2104 189.152 11.6369C189.394 10.6692 189.803 9.5461 190.38 8.26772C190.829 7.29998 191.314 6.35016 191.832 5.41826C192.351 4.47441 192.922 3.54849 193.544 2.64048C194.536 1.18289 195.228 0.454102 195.62 0.454102C195.873 0.454102 196 0.525786 196 0.669156C196 0.872262 195.677 1.38003 195.032 2.19245L193.821 3.71575C192.772 5.02997 191.913 6.37405 191.244 7.74801C190.587 9.12196 190.074 10.4959 189.705 11.8699C189.602 12.2641 189.55 12.6345 189.55 12.981C189.55 13.889 189.907 14.343 190.622 14.343C190.875 14.343 191.135 14.2653 191.4 14.11C191.665 13.9666 191.809 13.895 191.832 13.895C191.971 13.895 192.04 13.9965 192.04 14.1996C192.04 14.3788 191.976 14.5162 191.85 14.6118C191.458 14.8508 191.037 14.9702 190.587 14.9702Z" fill="white"/>
</svg>